<svg width="51" height="51" viewBox="0 0 51 51" fill="none" xmlns="http://www.w3.org/2000/svg">
<g clip-path="url(#clip0_754_1026)">
<g clip-path="url(#clip1_754_1026)">
<path d="M40.1191 0.9375H10.1191C4.59629 0.9375 0.119141 5.41465 0.119141 10.9375V40.9375C0.119141 46.4603 4.59629 50.9375 10.1191 50.9375H40.1191C45.642 50.9375 50.1191 46.4603 50.1191 40.9375V10.9375C50.1191 5.41465 45.642 0.9375 40.1191 0.9375Z" fill="white"/>
<path fill-rule="evenodd" clip-rule="evenodd" d="M44.1191 39.6875H41.8691V8.9375C41.8691 8.73859 41.7901 8.54782 41.6495 8.40717C41.5088 8.26652 41.3181 8.1875 41.1191 8.1875H34.1191C33.9202 8.1875 33.7295 8.26652 33.5888 8.40717C33.4482 8.54782 33.3691 8.73859 33.3691 8.9375V39.6875H29.3691V20.4375C29.3691 20.2386 29.2901 20.0478 29.1495 19.9072C29.0088 19.7665 28.8181 19.6875 28.6191 19.6875H21.6191C21.4202 19.6875 21.2295 19.7665 21.0888 19.9072C20.9482 20.0478 20.8691 20.2386 20.8691 20.4375V39.6875H16.8691V31.4375C16.8691 31.2386 16.7901 31.0478 16.6495 30.9072C16.5088 30.7665 16.3181 30.6875 16.1191 30.6875H9.11914C8.92023 30.6875 8.72946 30.7665 8.58881 30.9072C8.44816 31.0478 8.36914 31.2386 8.36914 31.4375V39.6875H6.11914C5.92023 39.6875 5.72946 39.7665 5.58881 39.9072C5.44816 40.0478 5.36914 40.2386 5.36914 40.4375C5.36914 40.6364 5.44816 40.8272 5.58881 40.9678C5.72946 41.1085 5.92023 41.1875 6.11914 41.1875H44.1191C44.3181 41.1875 44.5088 41.1085 44.6495 40.9678C44.7901 40.8272 44.8691 40.6364 44.8691 40.4375C44.8691 40.2386 44.7901 40.0478 44.6495 39.9072C44.5088 39.7665 44.3181 39.6875 44.1191 39.6875ZM34.8691 9.6875H40.3691V39.6875H34.8691V9.6875ZM22.3691 21.1875H27.8691V39.6875H22.3691V21.1875ZM9.86914 32.1875H15.3691V39.6875H9.86914V32.1875ZM6.61914 25.6875C6.81799 25.6873 7.00862 25.6082 7.14914 25.4675L27.8691 4.7475V7.9375C27.8691 8.13641 27.9482 8.32718 28.0888 8.46783C28.2295 8.60848 28.4202 8.6875 28.6191 8.6875C28.8181 8.6875 29.0088 8.60848 29.1495 8.46783C29.2901 8.32718 29.3691 8.13641 29.3691 7.9375V2.9375C29.3684 2.84318 29.3497 2.74986 29.3141 2.6625C29.2764 2.57037 29.2208 2.48667 29.1504 2.41628C29.08 2.34588 28.9963 2.29021 28.9041 2.2525C28.8144 2.21223 28.7175 2.19013 28.6191 2.1875H23.6191C23.4202 2.1875 23.2295 2.26652 23.0888 2.40717C22.9482 2.54782 22.8691 2.73859 22.8691 2.9375C22.8691 3.13641 22.9482 3.32718 23.0888 3.46783C23.2295 3.60848 23.4202 3.6875 23.6191 3.6875H26.8091L6.08914 24.4075C5.98438 24.5124 5.91306 24.646 5.88418 24.7914C5.85529 24.9368 5.87014 25.0875 5.92685 25.2244C5.98357 25.3614 6.07959 25.4785 6.20281 25.5609C6.32602 25.6433 6.4709 25.6874 6.61914 25.6875Z" fill="#0099FF" stroke="#0099FF" stroke-width="0.5"/>
</g>
</g>
<defs>
<clipPath id="clip0_754_1026">
<rect width="50" height="50" fill="white" transform="translate(0.119141 0.9375)"/>
</clipPath>
<clipPath id="clip1_754_1026">
<rect width="50" height="50" fill="white" transform="translate(0.119141 0.9375)"/>
</clipPath>
</defs>
</svg>
