<svg width="51" height="51" viewBox="0 0 51 51" fill="none" xmlns="http://www.w3.org/2000/svg">
<g clip-path="url(#clip0_754_1034)">
<g clip-path="url(#clip1_754_1034)">
<path d="M40.1191 0.078125H10.1191C4.59629 0.078125 0.119141 4.55528 0.119141 10.0781V40.0781C0.119141 45.601 4.59629 50.0781 10.1191 50.0781H40.1191C45.642 50.0781 50.1191 45.601 50.1191 40.0781V10.0781C50.1191 4.55528 45.642 0.078125 40.1191 0.078125Z" fill="white"/>
<path fill-rule="evenodd" clip-rule="evenodd" d="M41.3691 20.0246H34.1191V13.9436C34.1191 8.91712 30.0816 4.82812 25.1191 4.82812C20.1566 4.82812 16.1191 8.91712 16.1191 13.9436V15.7746C16.1191 15.9735 16.1982 16.1643 16.3388 16.305C16.4795 16.4456 16.6702 16.5246 16.8691 16.5246C17.0681 16.5246 17.2588 16.4456 17.3995 16.305C17.5401 16.1643 17.6191 15.9735 17.6191 15.7746V13.9436C17.6191 9.74462 20.9836 6.32812 25.1191 6.32812C29.2546 6.32812 32.6191 9.74462 32.6191 13.9436V20.0246H8.86914C8.67023 20.0246 8.47946 20.1036 8.33881 20.2443C8.19816 20.3849 8.11914 20.5757 8.11914 20.7746V42.2746C8.11914 42.4735 8.19816 42.6643 8.33881 42.805C8.47946 42.9456 8.67023 43.0246 8.86914 43.0246H41.3691C41.5681 43.0246 41.7588 42.9456 41.8995 42.805C42.0401 42.6643 42.1191 42.4735 42.1191 42.2746V20.7746C42.1191 20.5757 42.0401 20.3849 41.8995 20.2443C41.7588 20.1036 41.5681 20.0246 41.3691 20.0246ZM40.6191 41.5246H9.61914V21.5246H40.6191V41.5246Z" fill="#0099FF" stroke="#0099FF" stroke-width="0.5"/>
<path fill-rule="evenodd" clip-rule="evenodd" d="M28.3092 25.8281H28.3037C27.6887 25.8272 27.0815 25.9659 26.5279 26.2339C25.9743 26.5019 25.4889 26.8921 25.1082 27.3751C24.726 26.8974 24.2414 26.5116 23.6901 26.2463C23.1388 25.9809 22.535 25.8428 21.9232 25.8421H21.9162C21.3817 25.8399 20.852 25.9437 20.3579 26.1475C19.8638 26.3513 19.4151 26.6512 19.0377 27.0296C18.6658 27.3985 18.3711 27.8375 18.1705 28.3213C17.9699 28.8051 17.8674 29.3239 17.8692 29.8476C17.8702 30.8746 18.2447 31.8291 18.9237 32.5346C20.2922 33.9596 24.4332 37.9496 24.6087 38.1186C24.7485 38.254 24.9356 38.3295 25.1302 38.3292C25.3248 38.3289 25.5117 38.2529 25.6512 38.1171C25.8257 37.9481 29.9377 33.9606 31.3047 32.5441C31.9922 31.8306 32.3697 30.8701 32.3687 29.8406C32.3662 27.6301 30.5452 25.8306 28.3092 25.8281ZM30.2257 31.5026C29.1612 32.6051 26.3072 35.3881 25.1282 36.5341C23.9427 35.3881 21.0702 32.6031 20.0057 31.4946C19.5962 31.0686 19.3702 30.4836 19.3697 29.8451C19.3688 29.5188 19.4328 29.1956 19.5579 28.8942C19.6831 28.5928 19.8669 28.3193 20.0987 28.0896C20.3372 27.8509 20.6208 27.6618 20.933 27.5334C21.2451 27.405 21.5796 27.3398 21.9172 27.3416H21.9217C23.0762 27.3431 24.0927 28.1096 24.3927 29.2061C24.4361 29.3647 24.5304 29.5047 24.6611 29.6044C24.7919 29.7041 24.9517 29.7582 25.1162 29.7581H25.1197C25.2846 29.7573 25.4447 29.7022 25.5751 29.6012C25.7055 29.5003 25.799 29.3591 25.8412 29.1996C26.1322 28.0971 27.1442 27.3281 28.3047 27.3281H28.3077C29.7187 27.3296 30.8677 28.4576 30.8697 29.8416C30.8697 30.4811 30.6412 31.0706 30.2257 31.5026Z" fill="#0099FF" stroke="#0099FF" stroke-width="0.5"/>
</g>
</g>
<defs>
<clipPath id="clip0_754_1034">
<rect width="50" height="50" fill="white" transform="translate(0.119141 0.078125)"/>
</clipPath>
<clipPath id="clip1_754_1034">
<rect width="50" height="50" fill="white" transform="translate(0.119141 0.078125)"/>
</clipPath>
</defs>
</svg>
