<svg width="51" height="51" viewBox="0 0 51 51" fill="none" xmlns="http://www.w3.org/2000/svg">
<g clip-path="url(#clip0_754_1018)">
<g clip-path="url(#clip1_754_1018)">
<path d="M40.1191 0.585938H10.1191C4.59629 0.585938 0.119141 5.06309 0.119141 10.5859V40.5859C0.119141 46.1088 4.59629 50.5859 10.1191 50.5859H40.1191C45.642 50.5859 50.1191 46.1088 50.1191 40.5859V10.5859C50.1191 5.06309 45.642 0.585938 40.1191 0.585938Z" fill="white"/>
<path fill-rule="evenodd" clip-rule="evenodd" d="M25.5231 13.7007C18.8421 13.7007 13.4066 19.1382 13.4066 25.8222C13.4066 29.6702 15.2276 33.2622 18.3001 35.5457V43.7332C18.3001 43.9321 18.3791 44.1229 18.5198 44.2635C18.6604 44.4042 18.8512 44.4832 19.0501 44.4832H20.2551C20.6211 47.0667 22.8406 49.0617 25.5231 49.0617C28.2066 49.0617 30.4276 47.0667 30.7941 44.4832H31.8561C31.9546 44.4832 32.0521 44.4638 32.1431 44.4261C32.2341 44.3884 32.3168 44.3332 32.3864 44.2635C32.4561 44.1939 32.5113 44.1112 32.549 44.0202C32.5867 43.9292 32.6061 43.8317 32.6061 43.7332V35.6507C34.1642 34.5286 35.4334 33.0523 36.3092 31.3435C37.1849 29.6347 37.6421 27.7423 37.6431 25.8222C37.6431 19.1382 32.2061 13.7007 25.5231 13.7007ZM25.5231 47.5622C23.6696 47.5622 22.1201 46.2367 21.7711 44.4837H29.2786C28.9286 46.2362 27.3781 47.5622 25.5231 47.5622ZM31.1061 42.9832H19.8001V35.9092H31.1061V42.9832ZM27.6881 26.4822V34.4092H23.2146V26.4822H27.6881ZM31.7641 34.4092H29.1881V26.4822H31.5556C31.7545 26.4822 31.9453 26.4032 32.0859 26.2625C32.2266 26.1219 32.3056 25.9311 32.3056 25.7322C32.3056 25.5333 32.2266 25.3425 32.0859 25.2019C31.9453 25.0612 31.7545 24.9822 31.5556 24.9822H19.3501C19.1512 24.9822 18.9604 25.0612 18.8198 25.2019C18.6791 25.3425 18.6001 25.5333 18.6001 25.7322C18.6001 25.9311 18.6791 26.1219 18.8198 26.2625C18.9604 26.4032 19.1512 26.4822 19.3501 26.4822H21.7141V34.4092H19.2861C17.9297 33.4256 16.8255 32.1346 16.0642 30.642C15.3029 29.1495 14.906 27.4977 14.9061 25.8222C14.9061 19.9657 19.6686 15.2007 25.5226 15.2007C31.3781 15.2007 36.1426 19.9652 36.1426 25.8222C36.1419 27.4974 35.7448 29.1487 34.9838 30.6411C34.2229 32.1335 33.1196 33.4247 31.7641 34.4092ZM25.4511 11.1807C25.65 11.1807 25.8408 11.1017 25.9814 10.961C26.1221 10.8204 26.2011 10.6296 26.2011 10.4307V2.86719C26.2011 2.66827 26.1221 2.47751 25.9814 2.33686C25.8408 2.19621 25.65 2.11719 25.4511 2.11719C25.2522 2.11719 25.0614 2.19621 24.9208 2.33686C24.7801 2.47751 24.7011 2.66827 24.7011 2.86719V10.4307C24.7011 10.6296 24.7801 10.8204 24.9208 10.961C25.0614 11.1017 25.2522 11.1807 25.4511 11.1807ZM8.93362 24.9822H1.37012C1.1712 24.9822 0.980439 25.0612 0.839787 25.2019C0.699135 25.3425 0.620117 25.5333 0.620117 25.7322C0.620117 25.9311 0.699135 26.1219 0.839787 26.2625C0.980439 26.4032 1.1712 26.4822 1.37012 26.4822H8.93362C9.13253 26.4822 9.32329 26.4032 9.46395 26.2625C9.6046 26.1219 9.68362 25.9311 9.68362 25.7322C9.68362 25.5333 9.6046 25.3425 9.46395 25.2019C9.32329 25.0612 9.13253 24.9822 8.93362 24.9822ZM48.8696 24.9822H41.3096C41.1107 24.9822 40.9199 25.0612 40.7793 25.2019C40.6386 25.3425 40.5596 25.5333 40.5596 25.7322C40.5596 25.9311 40.6386 26.1219 40.7793 26.2625C40.9199 26.4032 41.1107 26.4822 41.3096 26.4822H48.8696C49.0685 26.4822 49.2593 26.4032 49.3999 26.2625C49.5406 26.1219 49.6196 25.9311 49.6196 25.7322C49.6196 25.5333 49.5406 25.3425 49.3999 25.2019C49.2593 25.0612 49.0685 24.9822 48.8696 24.9822ZM13.5131 15.0152C13.6551 15.1397 13.8311 15.2002 14.0061 15.2002C14.1588 15.2001 14.3078 15.1535 14.4332 15.0665C14.5587 14.9796 14.6546 14.8564 14.7082 14.7135C14.7617 14.5705 14.7704 14.4147 14.7331 14.2667C14.6957 14.1187 14.6141 13.9856 14.4991 13.8852L8.80262 8.91219C8.72878 8.84511 8.64231 8.79343 8.54825 8.76018C8.4542 8.72694 8.35446 8.71279 8.25487 8.71856C8.15528 8.72434 8.05784 8.74992 7.96826 8.79382C7.87868 8.83771 7.79876 8.89904 7.73318 8.9742C7.66759 9.04937 7.61766 9.13686 7.5863 9.23156C7.55495 9.32626 7.5428 9.42627 7.55057 9.52572C7.55834 9.62518 7.58587 9.72208 7.63155 9.81076C7.67724 9.89944 7.74015 9.97812 7.81662 10.0422L13.5131 15.0152ZM35.6101 15.2002C35.7851 15.2002 35.9606 15.1392 36.1026 15.0152L41.8021 10.0422C41.952 9.91133 42.0437 9.72632 42.0572 9.52784C42.0707 9.32936 42.0049 9.13363 41.8741 8.98369C41.8094 8.90939 41.7307 8.84859 41.6425 8.80475C41.5543 8.76091 41.4583 8.73491 41.3601 8.72822C41.2618 8.72153 41.1632 8.73429 41.0698 8.76577C40.9765 8.79726 40.8903 8.84684 40.8161 8.91169L35.1166 13.8847C35.0017 13.9852 34.9201 14.1183 34.8828 14.2664C34.8455 14.4144 34.8543 14.5703 34.9079 14.7133C34.9616 14.8562 35.0575 14.9794 35.183 15.0664C35.3084 15.1534 35.4574 15.2001 35.6101 15.2002Z" fill="#0099FF" stroke="#0099FF" stroke-width="0.5"/>
</g>
</g>
<defs>
<clipPath id="clip0_754_1018">
<rect width="50" height="50" fill="white" transform="translate(0.119141 0.585938)"/>
</clipPath>
<clipPath id="clip1_754_1018">
<rect width="50" height="50" fill="white" transform="translate(0.119141 0.585938)"/>
</clipPath>
</defs>
</svg>
