<svg width="46" height="102" viewBox="0 0 46 102" fill="none" xmlns="http://www.w3.org/2000/svg">
<path d="M15.1078 61.2381C15.389 61.2381 15.614 61.1256 15.7828 60.9006C16.064 60.5068 15.9515 60.0006 15.5578 59.7193C14.714 59.1568 10.214 56.6256 7.34529 55.0506C17.1328 54.7693 24.9515 50.9443 30.5765 43.8006C39.9703 31.8193 40.1953 14.1006 37.5515 2.56934C37.439 2.11934 36.989 1.83809 36.539 1.95059C36.089 2.06309 35.8078 2.51309 35.9203 2.96309C38.5078 14.1568 38.2828 31.2568 29.2828 42.7881C23.939 49.6506 16.3453 53.2506 6.83904 53.4193H6.6703L8.47029 51.1693C9.25779 50.2131 9.98904 49.3131 10.7765 48.3006C11.1703 47.7943 11.6203 47.2318 12.0703 46.6693C12.3515 46.3318 12.2953 45.7693 11.9578 45.4881C11.6203 45.2068 11.0578 45.2631 10.7765 45.6006C10.7765 45.6006 10.7765 45.6568 10.7203 45.6568L7.12029 50.1006C6.83904 50.4381 6.61405 50.7193 6.3328 51.0568C5.48905 52.0693 4.58905 53.0818 3.91404 54.1506C3.91404 54.2068 3.8578 54.2068 3.8578 54.2631C3.80154 54.3756 3.80154 54.4318 3.74529 54.5443V54.7131C3.74529 54.8256 3.7453 54.8818 3.80155 54.9943C3.80155 55.0506 3.8578 55.0506 3.8578 55.1068C3.91405 55.2193 3.97029 55.2756 4.02654 55.3318C4.08279 55.3881 4.13905 55.3881 4.19529 55.4443C4.19529 55.4443 4.25154 55.4443 4.30779 55.5006C4.81404 55.7256 13.3078 60.3381 14.5453 61.1818C14.7703 61.1818 14.939 61.2381 15.1078 61.2381Z" fill="black"/>
</svg>
