<svg width="36" height="36" viewBox="0 0 36 36" fill="none" xmlns="http://www.w3.org/2000/svg">
<g clip-path="url(#clip0_754_968)">
<g clip-path="url(#clip1_754_968)">
<g clip-path="url(#clip2_754_968)">
<path d="M28.1191 0.953125H7.11914C3.25315 0.953125 0.119141 4.08713 0.119141 7.95312V28.9531C0.119141 32.8191 3.25315 35.9531 7.11914 35.9531H28.1191C31.9851 35.9531 35.1191 32.8191 35.1191 28.9531V7.95312C35.1191 4.08713 31.9851 0.953125 28.1191 0.953125Z" fill="#0088FF"/>
<path fill-rule="evenodd" clip-rule="evenodd" d="M22.8057 15.2573C22.5875 15.2572 22.3713 15.2988 22.1687 15.3798V15.2153C22.1678 14.7171 21.9695 14.2395 21.6172 13.8873C21.2649 13.535 20.7874 13.3367 20.2892 13.3358H20.2017C19.8984 13.3383 19.6004 13.4153 19.3337 13.5598C19.246 13.1361 19.0152 12.7555 18.6799 12.482C18.3446 12.2086 17.9254 12.0589 17.4927 12.0583C17.1727 12.0579 16.8573 12.1335 16.5722 12.2788V9.56276H19.8972C20.0364 9.56276 20.17 9.50745 20.2684 9.40899C20.3669 9.31054 20.4222 9.177 20.4222 9.03776V3.93126C20.4222 3.86202 20.4085 3.79347 20.3819 3.72954C20.3553 3.66562 20.3163 3.60758 20.2672 3.55879C20.2181 3.50999 20.1598 3.47139 20.0957 3.44522C20.0316 3.41904 19.9629 3.4058 19.8937 3.40626H9.0437C8.90446 3.40626 8.77092 3.46157 8.67247 3.56003C8.57401 3.65849 8.5187 3.79202 8.5187 3.93126V9.03776C8.5187 9.177 8.57401 9.31054 8.67247 9.40899C8.77092 9.50745 8.90446 9.56276 9.0437 9.56276H12.7187V22.4078L9.6422 19.8878C9.02456 19.371 8.23634 19.1032 7.43173 19.1369C6.62712 19.1706 5.86401 19.5032 5.2917 20.0698C5.19964 20.1607 5.14444 20.2825 5.13669 20.4117C5.12893 20.5409 5.16918 20.6684 5.2497 20.7698L12.7187 30.3178V34.7313C12.7187 34.8705 12.774 35.004 12.8725 35.1025C12.9709 35.2009 13.1045 35.2563 13.2437 35.2563C13.3829 35.2563 13.5165 35.2009 13.6149 35.1025C13.7134 35.004 13.7687 34.8705 13.7687 34.7313V30.1358C13.7682 30.019 13.7288 29.9056 13.6567 29.8138L6.3907 20.5178C6.78292 20.268 7.2446 20.15 7.70855 20.1809C8.17249 20.2117 8.61449 20.3898 8.9702 20.6893L12.9112 23.9198C12.9879 23.9825 13.0807 24.0223 13.179 24.0345C13.2773 24.0467 13.3771 24.0308 13.4668 23.9887C13.5565 23.9466 13.6324 23.88 13.6858 23.7966C13.7393 23.7132 13.768 23.6163 13.7687 23.5173V7.81976C13.7696 7.60005 13.8573 7.3896 14.0127 7.23423C14.168 7.07887 14.3785 6.99118 14.5982 6.99026H14.6857C14.906 6.99026 15.1174 7.07754 15.2735 7.233C15.4296 7.38846 15.5178 7.59944 15.5187 7.81976V18.9813C15.5187 19.1205 15.574 19.254 15.6725 19.3525C15.7709 19.451 15.9045 19.5063 16.0437 19.5063C16.1829 19.5063 16.3165 19.451 16.4149 19.3525C16.5134 19.254 16.5687 19.1205 16.5687 18.9813V13.9063C16.5917 13.6814 16.6999 13.4738 16.871 13.326C17.0422 13.1783 17.2633 13.1017 17.4892 13.1118C17.7089 13.1127 17.9194 13.2004 18.0747 13.3557C18.2301 13.5111 18.3178 13.7215 18.3187 13.9413V18.9813C18.3187 19.1205 18.374 19.254 18.4725 19.3525C18.5709 19.451 18.7045 19.5063 18.8437 19.5063C18.9829 19.5063 19.1165 19.451 19.2149 19.3525C19.3134 19.254 19.3687 19.1205 19.3687 18.9813V15.2188C19.3696 14.999 19.4573 14.7886 19.6127 14.6332C19.768 14.4779 19.9785 14.3902 20.1982 14.3893H20.2857C20.506 14.3893 20.7174 14.4765 20.8735 14.632C21.0296 14.7875 21.1178 14.9984 21.1187 15.2188V18.9813C21.1187 19.1205 21.174 19.254 21.2725 19.3525C21.3709 19.451 21.5045 19.5063 21.6437 19.5063C21.7829 19.5063 21.9165 19.451 22.0149 19.3525C22.1134 19.254 22.1687 19.1205 22.1687 18.9813V17.0563C22.1564 16.9644 22.1635 16.8709 22.1897 16.782C22.2158 16.693 22.2604 16.6106 22.3204 16.5399C22.3805 16.4693 22.4547 16.4121 22.5383 16.372C22.6219 16.3319 22.713 16.3099 22.8057 16.3073C23.0057 16.3072 23.1976 16.3857 23.3403 16.5258C23.483 16.6658 23.565 16.8563 23.5687 17.0563V26.1178C23.5702 26.8331 23.4299 27.5417 23.156 28.2025C22.882 28.8633 22.4799 29.4633 21.9727 29.9678C21.9218 30.0185 21.8819 30.0792 21.8554 30.146C21.8289 30.2129 21.8164 30.2844 21.8187 30.3563V34.3813C21.8187 34.5205 21.874 34.654 21.9725 34.7525C22.0709 34.8509 22.2045 34.9063 22.3437 34.9063C22.4829 34.9063 22.6165 34.8509 22.7149 34.7525C22.8134 34.654 22.8687 34.5205 22.8687 34.3813V30.5558C23.9974 29.3542 24.6236 27.7663 24.6187 26.1178V17.0563C24.615 16.5779 24.4224 16.1203 24.0828 15.7833C23.7432 15.4463 23.2841 15.2572 22.8057 15.2573ZM14.6892 5.93676H14.6017C14.1023 5.93676 13.6233 6.13515 13.2702 6.48828C12.9171 6.84141 12.7187 7.32036 12.7187 7.81976V8.51976H9.5687V4.45626H19.3687V8.51276H16.5687V7.81276C16.5668 7.31518 16.3681 6.83855 16.0159 6.48704C15.6638 6.13552 15.1868 5.93768 14.6892 5.93676ZM27.9437 5.50626H22.6937C22.5545 5.50626 22.4209 5.56157 22.3225 5.66003C22.224 5.75849 22.1687 5.89202 22.1687 6.03126C22.1687 6.1705 22.224 6.30404 22.3225 6.40249C22.4209 6.50095 22.5545 6.55626 22.6937 6.55626H27.9437C28.0829 6.55626 28.2165 6.50095 28.3149 6.40249C28.4134 6.30404 28.4687 6.1705 28.4687 6.03126C28.4687 5.89202 28.4134 5.75849 28.3149 5.66003C28.2165 5.56157 28.0829 5.50626 27.9437 5.50626Z" fill="white" stroke="white" stroke-width="0.35"/>
<path fill-rule="evenodd" clip-rule="evenodd" d="M22.7536 8.65653C22.6541 8.56379 22.5225 8.51331 22.3865 8.51571C22.2505 8.51811 22.1207 8.5732 22.0245 8.66939C21.9283 8.76558 21.8732 8.89535 21.8708 9.03136C21.8684 9.16737 21.9189 9.29901 22.0117 9.39853L26.6911 14.0885C26.793 14.1634 26.9184 14.1991 27.0444 14.189C27.1704 14.1788 27.2885 14.1236 27.377 14.0333C27.4655 13.9431 27.5185 13.824 27.5263 13.6978C27.534 13.5716 27.496 13.4469 27.4191 13.3465L22.7536 8.65653ZM7.49015 10.3855C7.39171 10.2872 7.25828 10.232 7.11915 10.232C6.98002 10.232 6.84659 10.2872 6.74815 10.3855L3.24815 13.8855C3.19657 13.9336 3.1552 13.9916 3.1265 14.056C3.09781 14.1204 3.08238 14.1899 3.08114 14.2604C3.07989 14.3309 3.09286 14.4009 3.11926 14.4662C3.14567 14.5316 3.18497 14.591 3.23482 14.6409C3.28468 14.6907 3.34406 14.73 3.40943 14.7564C3.4748 14.7828 3.54482 14.7958 3.61532 14.7945C3.68581 14.7933 3.75533 14.7779 3.81973 14.7492C3.88413 14.7205 3.94209 14.6791 3.99015 14.6275L7.49015 11.1275C7.58847 11.0291 7.64369 10.8957 7.64369 10.7565C7.64369 10.6174 7.58847 10.484 7.49015 10.3855Z" fill="white" stroke="white" stroke-width="0.35"/>
</g>
</g>
</g>
<defs>
<clipPath id="clip0_754_968">
<rect width="35" height="35" fill="white" transform="translate(0.119141 0.953125)"/>
</clipPath>
<clipPath id="clip1_754_968">
<rect width="35" height="35" fill="white" transform="translate(0.119141 0.953125)"/>
</clipPath>
<clipPath id="clip2_754_968">
<rect width="35" height="35" fill="white" transform="translate(0.119141 0.953125)"/>
</clipPath>
</defs>
</svg>
