<svg width="36" height="36" viewBox="0 0 36 36" fill="none" xmlns="http://www.w3.org/2000/svg">
<g clip-path="url(#clip0_754_976)">
<g clip-path="url(#clip1_754_976)">
<g clip-path="url(#clip2_754_976)">
<path d="M28.1191 0.953125H7.11914C3.25315 0.953125 0.119141 4.08713 0.119141 7.95312V28.9531C0.119141 32.8191 3.25315 35.9531 7.11914 35.9531H28.1191C31.9851 35.9531 35.1191 32.8191 35.1191 28.9531V7.95312C35.1191 4.08713 31.9851 0.953125 28.1191 0.953125Z" fill="#0088FF"/>
<path fill-rule="evenodd" clip-rule="evenodd" d="M20.0477 17.0339C20.0477 17.1688 20.1013 17.2982 20.1967 17.3935C20.292 17.4889 20.4214 17.5425 20.5563 17.5425C20.6911 17.5425 20.8205 17.4889 20.9159 17.3935C21.0112 17.2982 21.0648 17.1688 21.0648 17.0339C21.0648 15.6227 19.8153 14.4537 18.192 14.2483V12.0867C18.192 11.9518 18.1384 11.8224 18.0431 11.7271C17.9477 11.6317 17.8183 11.5781 17.6835 11.5781C17.5486 11.5781 17.4192 11.6317 17.3239 11.7271C17.2285 11.8224 17.1749 11.9518 17.1749 12.0867V14.2483C15.5516 14.4541 14.3021 15.6231 14.3021 17.0339C14.3021 18.4441 15.5513 19.6127 17.1749 19.8185V23.4204C16.1151 23.2426 15.3189 22.5205 15.3189 21.6581C15.3189 21.5232 15.2653 21.3939 15.1699 21.2985C15.0745 21.2032 14.9452 21.1496 14.8103 21.1496C14.6754 21.1496 14.5461 21.2032 14.4507 21.2985C14.3553 21.3939 14.3018 21.5232 14.3018 21.6581C14.3018 23.0704 15.5516 24.2401 17.1749 24.4452V26.6057C17.1749 26.7406 17.2285 26.87 17.3239 26.9653C17.4192 27.0607 17.5486 27.1143 17.6835 27.1143C17.8183 27.1143 17.9477 27.0607 18.0431 26.9653C18.1384 26.87 18.192 26.7406 18.192 26.6057V24.4448C19.8157 24.2383 21.0645 23.0693 21.0645 21.6585C21.0645 20.248 19.8153 19.0793 18.192 18.8732V15.2731C19.2522 15.4512 20.0477 16.1726 20.0477 17.0339ZM15.3196 17.0339C15.3196 16.1726 16.1155 15.4516 17.1753 15.2734V18.7937C16.1155 18.6156 15.3196 17.8946 15.3196 17.0339ZM20.0474 21.6578C20.0474 22.5191 19.2518 23.2405 18.192 23.4193V19.8973C19.2522 20.0761 20.0474 20.7971 20.0474 21.6578Z" fill="white" stroke="white" stroke-width="0.35"/>
<path fill-rule="evenodd" clip-rule="evenodd" d="M17.6814 9.45341C12.2284 9.45341 7.79215 13.8897 7.79215 19.3427C7.79215 24.7957 12.2284 29.2319 17.6814 29.2319C23.1344 29.2319 27.5707 24.7957 27.5707 19.3427C27.5707 13.8897 23.1344 9.45341 17.6814 9.45341ZM17.6814 28.2148C12.7891 28.2148 8.80925 24.235 8.80925 19.3427C8.80925 14.4504 12.7891 10.4705 17.6814 10.4705C22.5737 10.4705 26.5536 14.4504 26.5536 19.3427C26.5536 24.235 22.5733 28.2148 17.6814 28.2148ZM34.7089 31.4814C34.6121 31.3875 34.4819 31.3359 34.347 31.3379C34.2122 31.34 34.0836 31.3955 33.9897 31.4922L32.1665 33.3724V16.8066C32.1665 16.6717 32.1129 16.5423 32.0175 16.447C31.9222 16.3516 31.7928 16.298 31.6579 16.298C31.5231 16.298 31.3937 16.3516 31.2983 16.447C31.203 16.5423 31.1494 16.6717 31.1494 16.8066V33.3969L29.2832 31.4723C29.1882 31.3804 29.0612 31.329 28.929 31.3291C28.7968 31.3292 28.6699 31.3808 28.575 31.4728C28.4801 31.5648 28.4248 31.6902 28.4207 31.8223C28.4166 31.9544 28.4641 32.0829 28.5531 32.1807L31.281 34.9936C31.3283 35.0426 31.385 35.0816 31.4478 35.1082C31.5105 35.1348 31.5779 35.1486 31.646 35.1486C31.7142 35.1486 31.7816 35.1348 31.8443 35.1082C31.9071 35.0816 31.9638 35.0426 32.0111 34.9936L34.7197 32.2006C34.7663 32.1527 34.8029 32.096 34.8275 32.034C34.8522 31.9719 34.8643 31.9055 34.8633 31.8387C34.8623 31.7719 34.8482 31.706 34.8217 31.6447C34.7952 31.5834 34.7569 31.5279 34.7089 31.4814ZM4.09545 1.79961C4.0797 1.78386 4.0594 1.77756 4.0426 1.76426L4.0181 1.74781C3.82 1.61306 3.55225 1.62426 3.37655 1.79996L0.6483 4.52716C0.555819 4.62308 0.504679 4.75147 0.50588 4.88471C0.507081 5.01795 0.560527 5.1454 0.654723 5.23964C0.748918 5.33388 0.876338 5.38739 1.00958 5.38865C1.14282 5.38992 1.27123 5.33884 1.3672 5.24641L3.239 3.37531V19.4526C3.239 19.5874 3.29258 19.7168 3.38795 19.8122C3.48332 19.9075 3.61267 19.9611 3.74755 19.9611C3.88243 19.9611 4.01178 19.9075 4.10715 19.8122C4.20252 19.7168 4.2561 19.5874 4.2561 19.4526V3.39841L6.08625 5.22716C6.18272 5.31708 6.31032 5.36604 6.44218 5.36373C6.57403 5.36141 6.69984 5.308 6.79309 5.21475C6.88634 5.1215 6.93975 4.99569 6.94207 4.86384C6.94438 4.73198 6.89542 4.60437 6.8055 4.50791L4.09545 1.79961Z" fill="white" stroke="white" stroke-width="0.35"/>
</g>
</g>
</g>
<defs>
<clipPath id="clip0_754_976">
<rect width="35" height="35" fill="white" transform="translate(0.119141 0.953125)"/>
</clipPath>
<clipPath id="clip1_754_976">
<rect width="35" height="35" fill="white" transform="translate(0.119141 0.953125)"/>
</clipPath>
<clipPath id="clip2_754_976">
<rect width="35" height="35" fill="white" transform="translate(0.119141 0.953125)"/>
</clipPath>
</defs>
</svg>
