<svg width="36" height="36" viewBox="0 0 36 36" fill="none" xmlns="http://www.w3.org/2000/svg">
<g clip-path="url(#clip0_754_992)">
<g clip-path="url(#clip1_754_992)">
<g clip-path="url(#clip2_754_992)">
<path d="M28.1191 0.84375H7.11914C3.25315 0.84375 0.119141 3.97776 0.119141 7.84375V28.8438C0.119141 32.7097 3.25315 35.8438 7.11914 35.8438H28.1191C31.9851 35.8438 35.1191 32.7097 35.1191 28.8438V7.84375C35.1191 3.97776 31.9851 0.84375 28.1191 0.84375Z" fill="#0088FF"/>
<path fill-rule="evenodd" clip-rule="evenodd" d="M28.6443 28.4922H5.36934V13.4422H28.1193V15.7032C28.1193 15.8424 28.1746 15.976 28.2731 16.0744C28.3716 16.1729 28.5051 16.2282 28.6443 16.2282C28.7836 16.2282 28.9171 16.1729 29.0156 16.0744C29.114 15.976 29.1693 15.8424 29.1693 15.7032V8.00319C29.1657 7.86639 29.1088 7.73642 29.0107 7.64097C28.9126 7.54553 28.7812 7.49214 28.6443 7.49219H4.84434C4.7051 7.49219 4.57156 7.5475 4.4731 7.64596C4.37465 7.74441 4.31934 7.87795 4.31934 8.01719V29.0172C4.31934 29.1564 4.37465 29.29 4.4731 29.3884C4.57156 29.4869 4.7051 29.5422 4.84434 29.5422H28.6443C28.7836 29.5422 28.9171 29.4869 29.0156 29.3884C29.114 29.29 29.1693 29.1564 29.1693 29.0172C29.1693 28.8779 29.114 28.7444 29.0156 28.646C28.9171 28.5475 28.7836 28.4922 28.6443 28.4922ZM28.1193 8.54219V12.3922H5.36934V8.54219H28.1193Z" fill="white" stroke="white" stroke-width="0.35"/>
<path fill-rule="evenodd" clip-rule="evenodd" d="M7.11973 10.9953H9.21973C9.35897 10.9953 9.4925 10.94 9.59096 10.8415C9.68941 10.7431 9.74473 10.6096 9.74473 10.4703C9.74473 10.3311 9.68941 10.1975 9.59096 10.0991C9.4925 10.0006 9.35897 9.94531 9.21973 9.94531H7.11973C6.98049 9.94531 6.84695 10.0006 6.7485 10.0991C6.65004 10.1975 6.59473 10.3311 6.59473 10.4703C6.59473 10.6096 6.65004 10.7431 6.7485 10.8415C6.84695 10.94 6.98049 10.9953 7.11973 10.9953ZM12.0197 10.9953H14.1197C14.259 10.9953 14.3925 10.94 14.491 10.8415C14.5894 10.7431 14.6447 10.6096 14.6447 10.4703C14.6447 10.3311 14.5894 10.1975 14.491 10.0991C14.3925 10.0006 14.259 9.94531 14.1197 9.94531H12.0197C11.8805 9.94531 11.747 10.0006 11.6485 10.0991C11.55 10.1975 11.4947 10.3311 11.4947 10.4703C11.4947 10.6096 11.55 10.7431 11.6485 10.8415C11.747 10.94 11.8805 10.9953 12.0197 10.9953ZM34.3777 22.3913V22.3458C34.3786 22.3283 34.3786 22.3108 34.3777 22.2933V22.0903C34.3786 22.0728 34.3786 22.0553 34.3777 22.0378V21.9923L34.3567 21.9433L34.3287 21.8978L34.3112 21.8663C34.1677 21.6878 30.7517 17.2953 26.3277 17.2953C21.4697 17.2953 17.8857 21.6808 17.7352 21.8663L17.7072 21.9083L17.6792 21.9503C17.6713 21.9674 17.6643 21.9849 17.6582 22.0028V22.0448C17.6572 22.0635 17.6572 22.0822 17.6582 22.1008V22.2968C17.6572 22.3155 17.6572 22.3342 17.6582 22.3528V22.3948C17.6643 22.4127 17.6713 22.4302 17.6792 22.4473L17.7072 22.4893L17.7352 22.5313C17.8857 22.7098 21.4697 27.0953 26.3277 27.0953C30.7517 27.0953 34.1677 22.7028 34.3112 22.5138L34.3287 22.4823L34.3567 22.4368L34.3777 22.3913ZM26.3277 26.0453C22.6982 26.0453 19.7477 23.1788 18.8412 22.1953C19.7477 21.2118 22.6912 18.3453 26.3277 18.3453C29.5862 18.3453 32.3617 21.2223 33.2087 22.1953C32.3652 23.1683 29.5862 26.0453 26.3277 26.0453Z" fill="white" stroke="white" stroke-width="0.35"/>
<path fill-rule="evenodd" clip-rule="evenodd" d="M26.0189 19.2188C25.4305 19.2188 24.8554 19.3932 24.3661 19.7201C23.8769 20.047 23.4956 20.5117 23.2704 21.0553C23.0452 21.5989 22.9863 22.1971 23.1011 22.7741C23.2159 23.3512 23.4992 23.8813 23.9153 24.2974C24.3314 24.7135 24.8615 24.9968 25.4386 25.1116C26.0156 25.2264 26.6138 25.1675 27.1574 24.9423C27.701 24.7171 28.1657 24.3358 28.4926 23.8466C28.8195 23.3573 28.9939 22.7821 28.9939 22.1938C28.993 21.405 28.6793 20.6489 28.1216 20.0911C27.5638 19.5334 26.8077 19.2197 26.0189 19.2188ZM26.0189 24.1188C25.6382 24.1188 25.266 24.0059 24.9495 23.7943C24.6329 23.5828 24.3862 23.2822 24.2405 22.9304C24.0948 22.5787 24.0567 22.1916 24.1309 21.8182C24.2052 21.4448 24.3886 21.1018 24.6578 20.8326C24.927 20.5634 25.27 20.38 25.6434 20.3057C26.0168 20.2315 26.4039 20.2696 26.7556 20.4153C27.1074 20.561 27.408 20.8077 27.6195 21.1243C27.831 21.4408 27.9439 21.813 27.9439 22.1938C27.943 22.704 27.7399 23.1931 27.3791 23.5539C27.0183 23.9147 26.5292 24.1178 26.0189 24.1188Z" fill="white" stroke="white" stroke-width="0.35"/>
</g>
</g>
</g>
<defs>
<clipPath id="clip0_754_992">
<rect width="35" height="35" fill="white" transform="translate(0.119141 0.84375)"/>
</clipPath>
<clipPath id="clip1_754_992">
<rect width="35" height="35" fill="white" transform="translate(0.119141 0.84375)"/>
</clipPath>
<clipPath id="clip2_754_992">
<rect width="35" height="35" fill="white" transform="translate(0.119141 0.84375)"/>
</clipPath>
</defs>
</svg>
