<svg width="36" height="36" viewBox="0 0 36 36" fill="none" xmlns="http://www.w3.org/2000/svg">
<g clip-path="url(#clip0_754_1008)">
<g clip-path="url(#clip1_754_1008)">
<g clip-path="url(#clip2_754_1008)">
<path d="M28.1191 0.84375H7.11914C3.25315 0.84375 0.119141 3.97776 0.119141 7.84375V28.8438C0.119141 32.7097 3.25315 35.8438 7.11914 35.8438H28.1191C31.9851 35.8438 35.1191 32.7097 35.1191 28.8438V7.84375C35.1191 3.97776 31.9851 0.84375 28.1191 0.84375Z" fill="#0088FF"/>
<path fill-rule="evenodd" clip-rule="evenodd" d="M30.3943 6.79688H4.84434C4.7051 6.79688 4.57156 6.85219 4.4731 6.95064C4.37465 7.0491 4.31934 7.18264 4.31934 7.32187V24.1219C4.31934 24.2611 4.37465 24.3946 4.4731 24.4931C4.57156 24.5916 4.7051 24.6469 4.84434 24.6469H12.1628L6.56284 30.2469C6.46452 30.3453 6.4093 30.4787 6.4093 30.6179C6.4093 30.757 6.46452 30.8904 6.56284 30.9889L8.82734 33.2534C8.92577 33.3517 9.05921 33.4069 9.19834 33.4069C9.33746 33.4069 9.4709 33.3517 9.56934 33.2534L18.1758 24.6469H30.3943C30.5336 24.6469 30.6671 24.5916 30.7656 24.4931C30.864 24.3946 30.9193 24.2611 30.9193 24.1219V7.32187C30.9193 7.18264 30.864 7.0491 30.7656 6.95064C30.6671 6.85219 30.5336 6.79688 30.3943 6.79688ZM9.21934 32.1299L7.68634 30.5969L19.8663 18.4169L22.4353 17.3669L21.3853 19.9359L9.21934 32.1299ZM29.8693 23.5969H19.2258L22.2078 20.6149C22.2574 20.566 22.2967 20.5077 22.3233 20.4434L23.8808 16.6214C23.9276 16.5234 23.9429 16.4133 23.9245 16.3063C23.9062 16.1993 23.8551 16.1007 23.7783 16.0239C23.7016 15.9471 23.6029 15.896 23.4959 15.8777C23.3889 15.8593 23.2788 15.8746 23.1808 15.9214L19.3693 17.4929C19.3051 17.5197 19.2468 17.559 19.1978 17.6084L13.2128 23.5969H5.36934V7.84687H29.8693V23.5969Z" fill="white" stroke="white" stroke-width="0.35"/>
<path fill-rule="evenodd" clip-rule="evenodd" d="M26.0198 14.8431C26.5043 14.8431 26.978 14.6994 27.3809 14.4302C27.7838 14.161 28.0978 13.7783 28.2833 13.3306C28.4687 12.883 28.5172 12.3903 28.4227 11.9151C28.3281 11.4398 28.0948 11.0033 27.7522 10.6607C27.4095 10.318 26.973 10.0847 26.4977 9.99014C26.0225 9.89561 25.5299 9.94413 25.0822 10.1296C24.6345 10.315 24.2519 10.629 23.9827 11.0319C23.7134 11.4348 23.5698 11.9085 23.5698 12.3931C23.5698 13.0428 23.8279 13.666 24.2873 14.1255C24.7468 14.5849 25.37 14.8431 26.0198 14.8431ZM26.0198 10.9931C26.2966 10.9931 26.5673 11.0752 26.7976 11.229C27.0278 11.3828 27.2072 11.6015 27.3132 11.8573C27.4191 12.1131 27.4469 12.3946 27.3929 12.6662C27.3388 12.9378 27.2055 13.1872 27.0097 13.383C26.8139 13.5788 26.5645 13.7121 26.2929 13.7662C26.0213 13.8202 25.7398 13.7925 25.484 13.6865C25.2282 13.5805 25.0095 13.4011 24.8557 13.1709C24.7019 12.9406 24.6198 12.67 24.6198 12.3931C24.6198 12.0218 24.7673 11.6657 25.0298 11.4031C25.2924 11.1406 25.6484 10.9931 26.0198 10.9931ZM7.46975 21.4931H12.0583C12.1975 21.4931 12.331 21.4378 12.4295 21.3393C12.5279 21.2408 12.5833 21.1073 12.5833 20.9681C12.5833 20.8288 12.5279 20.6953 12.4295 20.5968C12.331 20.4984 12.1975 20.4431 12.0583 20.4431H8.43925L14.5643 11.0771L17.5288 15.6096C17.5653 15.6698 17.6135 15.7221 17.6707 15.7633C17.7278 15.8045 17.7926 15.8338 17.8613 15.8494C17.93 15.865 18.0011 15.8666 18.0705 15.8542C18.1398 15.8417 18.2059 15.8155 18.2649 15.7769C18.3238 15.7384 18.3745 15.6884 18.4137 15.6299C18.4529 15.5714 18.48 15.5056 18.4933 15.4364C18.5066 15.3673 18.5058 15.2961 18.491 15.2273C18.4762 15.1584 18.4478 15.0932 18.4073 15.0356L15.0053 9.83107C14.9545 9.76232 14.8883 9.70644 14.812 9.66794C14.7357 9.62943 14.6515 9.60938 14.566 9.60938C14.4805 9.60938 14.3963 9.62943 14.32 9.66794C14.2437 9.70644 14.1775 9.76232 14.1268 9.83107L7.02875 20.6811C6.97697 20.7604 6.94762 20.8522 6.94379 20.9469C6.93996 21.0415 6.96181 21.1354 7.00701 21.2186C7.05221 21.3019 7.11909 21.3713 7.20055 21.4196C7.28202 21.4679 7.37504 21.4933 7.46975 21.4931Z" fill="white" stroke="white" stroke-width="0.35"/>
</g>
</g>
</g>
<defs>
<clipPath id="clip0_754_1008">
<rect width="35" height="35" fill="white" transform="translate(0.119141 0.84375)"/>
</clipPath>
<clipPath id="clip1_754_1008">
<rect width="35" height="35" fill="white" transform="translate(0.119141 0.84375)"/>
</clipPath>
<clipPath id="clip2_754_1008">
<rect width="35" height="35" fill="white" transform="translate(0.119141 0.84375)"/>
</clipPath>
</defs>
</svg>
