<svg width="36" height="36" viewBox="0 0 36 36" fill="none" xmlns="http://www.w3.org/2000/svg">
<g clip-path="url(#clip0_754_985)">
<g clip-path="url(#clip1_754_985)">
<path d="M28.1191 0.953125H7.11914C3.25315 0.953125 0.119141 4.08713 0.119141 7.95312V28.9531C0.119141 32.8191 3.25315 35.9531 7.11914 35.9531H28.1191C31.9851 35.9531 35.1191 32.8191 35.1191 28.9531V7.95312C35.1191 4.08713 31.9851 0.953125 28.1191 0.953125Z" fill="#0088FF"/>
<path fill-rule="evenodd" clip-rule="evenodd" d="M22.8611 24.7733C22.7219 24.7733 22.5883 24.8286 22.4899 24.9271C22.3914 25.0255 22.3361 25.1591 22.3361 25.2983V30.0968H5.19941V7.4875H22.3361V11.4775C22.3361 11.6167 22.3914 11.7503 22.4899 11.8487C22.5883 11.9472 22.7219 12.0025 22.8611 12.0025C23.0004 12.0025 23.1339 11.9472 23.2323 11.8487C23.3308 11.7503 23.3861 11.6167 23.3861 11.4775V6.9625C23.3861 6.82326 23.3308 6.68973 23.2323 6.59127C23.1339 6.49281 23.0004 6.4375 22.8611 6.4375H4.67441C4.53518 6.4375 4.40164 6.49281 4.30318 6.59127C4.20473 6.68973 4.14941 6.82326 4.14941 6.9625V30.6218C4.14941 30.761 4.20473 30.8946 4.30318 30.993C4.40164 31.0915 4.53518 31.1468 4.67441 31.1468H22.8611C23.0004 31.1468 23.1339 31.0915 23.2323 30.993C23.3308 30.8946 23.3861 30.761 23.3861 30.6218V25.2983C23.3861 25.1591 23.3308 25.0255 23.2323 24.9271C23.1339 24.8286 23.0004 24.7733 22.8611 24.7733Z" fill="white" stroke="white" stroke-width="0.35"/>
<path fill-rule="evenodd" clip-rule="evenodd" d="M32.4777 7.90766C32.4497 7.77122 32.3686 7.65149 32.2523 7.57481L29.6165 5.83671C29.5589 5.79873 29.4944 5.77247 29.4266 5.75944C29.3589 5.74642 29.2892 5.74687 29.2216 5.76078C29.154 5.7747 29.0899 5.80179 29.0328 5.84053C28.9757 5.87926 28.9268 5.92887 28.8888 5.98651L26.9593 8.91846L26.9589 8.91881L16.7414 24.4112C16.7323 24.4249 16.7263 24.4399 16.719 24.4539C16.7109 24.4686 16.7022 24.4826 16.6955 24.498C16.6851 24.5243 16.6767 24.5513 16.6703 24.5789C16.6689 24.5848 16.6665 24.5897 16.6651 24.5957L16.6647 24.5978C16.6644 24.5994 16.664 24.601 16.6637 24.6027L15.8286 28.7281C15.8076 28.8308 15.8178 28.9374 15.858 29.0342C15.8981 29.131 15.9663 29.2135 16.0538 29.2712C16.1412 29.3289 16.244 29.3591 16.3488 29.3578C16.4535 29.3566 16.5555 29.324 16.6416 29.2643L20.1122 26.8675C20.1238 26.8595 20.1329 26.8497 20.1437 26.8409C20.1546 26.8322 20.1654 26.8238 20.1756 26.814C20.2015 26.7895 20.2247 26.7624 20.2449 26.7331C20.247 26.73 20.2501 26.7279 20.2522 26.7247L20.2554 26.7198L20.2578 26.716L30.4666 11.2323L30.4673 11.2316L32.4014 8.30211C32.4782 8.18595 32.5056 8.04406 32.4777 7.90766ZM17.5401 25.5662L18.875 26.4461L17.1159 27.661L17.5401 25.5662ZM19.6646 25.7087L17.9072 24.5505L27.5469 9.93381L29.3018 11.0913L19.6646 25.7087ZM29.88 10.2152L28.1248 9.05706L29.4772 7.00221L31.2356 8.16176L29.88 10.2152ZM17.1778 13.0719C17.3171 13.0719 17.4506 13.0166 17.5491 12.9181C17.6475 12.8197 17.7028 12.6862 17.7028 12.5469C17.7028 12.4077 17.6475 12.2741 17.5491 12.1757C17.4506 12.0772 17.3171 12.0219 17.1778 12.0219H7.41074C7.2715 12.0219 7.13797 12.0772 7.03951 12.1757C6.94105 12.2741 6.88574 12.4077 6.88574 12.5469C6.88574 12.6862 6.94105 12.8197 7.03951 12.9181C7.13797 13.0166 7.2715 13.0719 7.41074 13.0719H17.1778ZM7.53289 17.3969H17.2975C17.4368 17.3969 17.5703 17.3416 17.6688 17.2431C17.7672 17.1446 17.8225 17.0111 17.8225 16.8719C17.8225 16.7326 17.7672 16.5991 17.6688 16.5006C17.5703 16.4022 17.4368 16.3469 17.2975 16.3469H7.53289C7.39365 16.3469 7.26012 16.4022 7.16166 16.5006C7.06321 16.5991 7.00789 16.7326 7.00789 16.8719C7.00789 17.0111 7.06321 17.1446 7.16166 17.2431C7.26012 17.3416 7.39365 17.3969 7.53289 17.3969Z" fill="white" stroke="white" stroke-width="0.35"/>
</g>
</g>
<defs>
<clipPath id="clip0_754_985">
<rect width="35" height="35" fill="white" transform="translate(0.119141 0.953125)"/>
</clipPath>
<clipPath id="clip1_754_985">
<rect width="35" height="35" fill="white" transform="translate(0.119141 0.953125)"/>
</clipPath>
</defs>
</svg>
