<svg width="36" height="36" viewBox="0 0 36 36" fill="none" xmlns="http://www.w3.org/2000/svg">
<g clip-path="url(#clip0_754_1002)">
<g clip-path="url(#clip1_754_1002)">
<path d="M28.1191 0.84375H7.11914C3.25315 0.84375 0.119141 3.97776 0.119141 7.84375V28.8438C0.119141 32.7097 3.25315 35.8438 7.11914 35.8438H28.1191C31.9851 35.8438 35.1191 32.7097 35.1191 28.8438V7.84375C35.1191 3.97776 31.9851 0.84375 28.1191 0.84375Z" fill="#0088FF"/>
<path fill-rule="evenodd" clip-rule="evenodd" d="M33.7416 6.37772C33.7042 6.28091 33.6389 6.19737 33.554 6.13769C33.4691 6.078 33.3684 6.04485 33.2646 6.04241L30.1531 5.96961L30.2234 2.85741C30.2258 2.75355 30.1974 2.6513 30.1416 2.56363C30.0859 2.47595 30.0054 2.40679 29.9103 2.36489C29.8152 2.323 29.7099 2.31025 29.6075 2.32827C29.5052 2.34629 29.4105 2.39426 29.3355 2.46611L25.6174 6.01757C25.5167 6.11354 25.4581 6.2456 25.4547 6.38472L25.3749 9.70761L24.454 10.6285C22.0103 8.36326 18.7427 6.97516 15.1563 6.97516C7.60574 6.97516 1.46289 13.1194 1.46289 20.6714C1.46289 28.2205 7.60574 34.3623 15.1563 34.3623C22.7068 34.3623 28.8497 28.2205 28.8497 20.6714C28.8497 17.0835 27.4616 13.8152 25.1964 11.3708L26.0059 10.5613L29.5192 10.6432H29.5315C29.6662 10.6432 29.7961 10.5914 29.8937 10.4979L33.6146 6.94717C33.7686 6.80052 33.8186 6.57582 33.7416 6.37772ZM27.7993 20.6714C27.7993 27.6416 22.1276 33.3123 15.1559 33.3123C8.18429 33.3123 2.51254 27.6416 2.51254 20.6714C2.51254 13.6983 8.18429 8.02516 15.1559 8.02516C18.4533 8.02516 21.4584 9.29531 23.7117 11.3705L21.7685 13.3137C20.0143 11.7359 17.6959 10.7734 15.1563 10.7734C9.70014 10.7734 5.26144 15.2135 5.26144 20.671C5.26144 26.1272 9.70014 30.5659 15.1563 30.5659C20.6142 30.5659 25.0539 26.1272 25.0539 20.671C25.0539 18.13 24.0907 15.8102 22.5108 14.0557L24.4537 12.1128C26.5292 14.3668 27.7993 17.3733 27.7993 20.6714ZM18.3171 20.6696C18.3171 22.4123 16.8993 23.8298 15.1566 23.8298C13.414 23.8298 11.9961 22.4119 11.9961 20.6696C11.9961 18.927 13.414 17.5091 15.1566 17.5091C15.8384 17.5091 16.4688 17.7282 16.9857 18.0968L14.7846 20.2979C14.7358 20.3467 14.6972 20.4046 14.6708 20.4683C14.6444 20.532 14.6309 20.6003 14.6309 20.6692C14.6309 20.7382 14.6445 20.8064 14.6709 20.8701C14.6973 20.9338 14.736 20.9917 14.7848 21.0404C14.8335 21.0892 14.8914 21.1278 14.9551 21.1542C15.0188 21.1806 15.0871 21.1942 15.1561 21.1941C15.225 21.1941 15.2933 21.1805 15.357 21.1541C15.4207 21.1277 15.4785 21.089 15.5273 21.0403L17.7284 18.8391C18.1111 19.3728 18.317 20.0129 18.3171 20.6696ZM17.7344 17.3478C16.9983 16.7721 16.0908 16.4592 15.1563 16.4591C12.8347 16.4591 10.9458 18.3481 10.9458 20.6696C10.9458 22.9912 12.8344 24.8798 15.1563 24.8798C17.4782 24.8798 19.3668 22.9912 19.3668 20.6696C19.3668 19.6973 19.0322 18.8034 18.4767 18.0901L21.7667 14.7998C23.1569 16.3632 24.0036 18.4198 24.0036 20.6714C24.0036 25.5486 20.0346 29.5162 15.1559 29.5162C10.2787 29.5162 6.31109 25.5486 6.31109 20.6714C6.31109 15.7927 10.2787 11.8237 15.1559 11.8237C17.4061 11.8237 19.4613 12.6693 21.0244 14.0578L17.7344 17.3478ZM29.326 9.58861L27.0318 9.53506L28.6953 7.87151C28.7455 7.82308 28.7855 7.76515 28.813 7.7011C28.8405 7.63705 28.855 7.56816 28.8556 7.49845C28.8562 7.42874 28.8429 7.35961 28.8165 7.29509C28.7901 7.23057 28.7511 7.17195 28.7018 7.12266C28.6526 7.07336 28.5939 7.03438 28.5294 7.00798C28.4649 6.98159 28.3958 6.9683 28.3261 6.96891C28.2563 6.96951 28.1875 6.984 28.1234 7.01151C28.0594 7.03903 28.0014 7.07902 27.953 7.12917L26.4508 8.63136L26.4987 6.62761L28.2025 5.00186L28.2029 5.00151L29.1447 4.10131L29.0912 6.47082C29.0881 6.60994 29.1404 6.74461 29.2365 6.84522C29.3327 6.94583 29.4648 7.00415 29.6039 7.00736L31.9727 7.06266L29.326 9.58861Z" fill="white" stroke="white" stroke-width="0.35"/>
</g>
</g>
<defs>
<clipPath id="clip0_754_1002">
<rect width="35" height="35" fill="white" transform="translate(0.119141 0.84375)"/>
</clipPath>
<clipPath id="clip1_754_1002">
<rect width="35" height="35" fill="white" transform="translate(0.119141 0.84375)"/>
</clipPath>
</defs>
</svg>
